 http://www.shotpix.com/images/97086844412374261548.jpg


Release Title: Rock of Ages (2012)

					
Genre: Comedy | Drama | Musical
IMDb Rating: 6.2/10 http://www.imdb.com/title/tt1336608/


Plot: A small town girl and a city boy meet on the Sunset Strip, while pursuing their Hollywood dreams.  


Director: Adam Shankman


Stars: Julianne Hough, Diego Boneta and Tom Cruise. 


Rated: Rated PG-13 for sexual content, suggestive dancing, some heavy drinking, and language.


General
Format                         : Matroska
Format version                 : Version 2
File size                      : 693 MiB
Duration                       : 2h 16mn
Overall bit rate               : 711 Kbps
Source                         : EXTENDED.720p.BluRay.X264-BLOW(Thanks)               

Video
ID                             : 1
Format                         : AVC
Format/Info                    : Advanced Video Codec
Codec ID                       : V_MPEG4/ISO/AVC
Duration                       : 2h 16mn
Bit rate                       : 582 Kbps
Width                          : 1 280 pixels
Height                         : 528 pixels
Display aspect ratio           : 2.40:1
Frame rate mode                : Constant
Frame rate                     : 23.976 fps
Color space                    : YUV
Chroma subsampling             : 4:2:0
Stream size                    : 554 MiB (80%)
Writing library                : x264 core 125 r2208 d9d2288
Default                        : Yes
Forced                         : No

Audio
ID                             : 2
Format                         : AC-3
Format/Info                    : Audio Coding 3
Codec ID                       : A_AC3
Duration                       : 2h 16mn
Bit rate mode                  : Constant
Bit rate                       : 128 Kbps
Channel(s)                     : 2 channels
Channel positions              : Front: L R
Sampling rate                  : 48.0 KHz
Stream size                    : 125 MiB (18%)
Language                       : English
Default                        : Yes
Forced                         : No

Subtitle                       : Yes (English)



Screens:

 
http://www.shotpix.com/images/87422034269698915554.png 
http://www.shotpix.com/images/94757134222241018140.png 
http://www.shotpix.com/images/23082636740898197401.png 
http://www.shotpix.com/images/63874068853623780876.png 
http://www.shotpix.com/images/72079345829761636544.png 
http://www.shotpix.com/images/84265555563556646676.png



------------------------------------------------------------------------


Recommend to you to use VLC player. Install shark007 codecs in case of any kind of problem in playback (For non-VLC
Media Player users). Alternatively, install Core AVC codecs, the fastest decoder that there is coupled with Community
Center Codec Pack and play on Windows Media Player ClassicCheck sample to be sure. Enjoy!


Greets to: srkfan, VYTO, MgB, staff members at ExtraTorrent, TPB,KAT, 1337x, PublicHD, Ahashare,
SilverTorrent, TorrentMafia, P2PDL, and all others.


Encoder Notes: Looking For Early Access To Anything You Can Provide DVDScr, R5, DVDRips, BluRay, Direct Audio, Early Music
Releases, Seedboxes, Links, Dedicated Servers anything u can provide, Advance / Promo CDs/DVDs. If You Got anything to
offer contact me at "contact@tinym.eu"

 
http://www   .   facebook  .   com  /  p2pdl